<?xml version="1.0" encoding="UTF-8"?>
<svg width="248px" height="478px" viewBox="0 0 248 478" version="1.1" xmlns="http://www.w3.org/2000/svg" xmlns:xlink="http://www.w3.org/1999/xlink">
    <!-- Generator: Sketch 52.4 (67378) - http://www.bohemiancoding.com/sketch -->
    <title>Combined Shape Copy</title>
    <desc>Created with Sketch.</desc>
    <g id="Symbols" stroke="none" stroke-width="1" fill="none" fill-rule="evenodd" fill-opacity="0.03">
        <g id="Quest" transform="translate(-109.000000, 0.000000)" fill="#410001">
            <path d="M356.986309,435.15913 L357,435.15913 L357,440.865679 C357,461.367498 301.660704,478 233.397041,478 L233,478 L232.61665,478 C164.339296,478 109,461.367498 109,440.865679 L109,435.15913 L109.013691,435.15913 C109.424423,423.732114 124.114939,413.43249 147.499282,406.125324 C201.633764,361.92045 209.957933,298.04886 211.231202,280.344641 C208.547753,278.911044 206.576239,277.171243 205.604174,275.278339 C190.845203,271.088897 180.987634,263.572955 180.987634,254.971377 C180.987634,247.692048 188.065916,241.178231 199.224136,236.821769 C204.933311,227.593862 203.988628,220.857351 202.386773,216.974114 C175.771337,209.416417 155.782378,191.378156 150.93574,169.373147 L110.79353,20.6549224 L110.834603,20.6549224 C110.779839,20.4183094 110.752457,20.1816964 110.752457,19.9450834 C110.752457,8.93562007 164.489897,2.84217094e-14 230.809429,2.84217094e-14 L233,2.84217094e-14 L235.190571,2.84217094e-14 C301.496412,2.84217094e-14 355.247543,8.93562007 355.247543,19.9450834 C355.247543,20.1816964 355.220161,20.4183094 355.165397,20.6549224 L355.20647,20.6549224 L315.06426,169.373147 L315.050569,169.373147 C310.217622,191.378156 290.228663,209.416417 263.626918,216.974114 C262.011372,220.857351 261.066689,227.593862 266.789555,236.821769 C277.947775,241.178231 285.026057,247.692048 285.026057,254.971377 C285.026057,263.572955 275.154797,271.088897 260.395826,275.278339 C259.423761,277.171243 257.452247,278.911044 254.782489,280.344641 C256.042067,298.04886 264.366236,361.92045 318.514409,406.125324 C341.87137,413.43249 356.561886,423.732114 356.986309,435.15913 Z M134,26.6753052 C147.232325,31.6758106 185.909838,35.2953586 231.562467,35.2953586 C288.137154,35.2953586 334,29.7367372 334,22.87983 C334,19.4602274 322.593412,16.3635224 304.140169,14.1181435 C307.305907,15.314478 309.015236,16.5898544 309.015236,17.9136186 C309.015236,24.7705257 263.15239,30.3291472 206.577702,30.3291472 C178.217332,30.3291472 152.548767,28.9323075 134,26.6753052 Z" id="Combined-Shape-Copy"></path>
        </g>
    </g>
</svg>
