<?xml version="1.0" encoding="UTF-8"?>
<svg viewBox="0 0 24 20" version="1.1" xmlns="http://www.w3.org/2000/svg" xmlns:xlink="http://www.w3.org/1999/xlink">
  <!-- Generator: Sketch 52.6 (67491) - http://www.bohemiancoding.com/sketch -->
  <title>X</title>
  <desc>Created with Sketch.</desc>
  <path d="M23.384,16.515 C23.384,17.3510042 22.680007,17.867999 21.272,18.066 L20.612,17.868 C20.5019994,17.9120002 20.3590009,17.934 20.183,17.934 C20.0289992,17.934 19.853001,17.8900004 19.655,17.802 C19.456999,17.7139996 19.2920007,17.67 19.16,17.67 C18.4999967,17.6479999 17.9830019,17.4170022 17.609,16.977 L17.543,16.944 C17.1249979,16.8119993 16.7290019,16.5700018 16.355,16.218 L15.86,15.921 L15.299,15.393 L14.639,14.634 L13.154,13.05 L12.395,11.829 L12.329,11.664 C12.1969993,11.862001 12.0650007,12.0929987 11.933,12.357 L11.471,12.423 L10.316,13.347 L9.722,13.776 L9.326,14.502 L6.95,16.251 L6.488,17.01 L5.498,17.373 L5.135,17.769 L4.739,17.802 L4.013,18.561 L3.551,18.726 L3.056,19.023 L2.858,19.089 L2.726,19.254 C2.41799846,19.6280019 2.12100143,19.815 1.835,19.815 C1.24099703,19.815 0.944,19.4520036 0.944,18.726 C1.56000308,18.2639977 1.94499923,17.8460019 2.099,17.472 L2.363,17.406 C2.363,17.3839999 2.38499978,17.2630011 2.429,17.043 C3.11100341,16.844999 3.55099901,16.4820026 3.749,15.954 L4.475,15.624 L4.772,15.393 C4.94800088,15.2829994 5.20099835,15.0080022 5.531,14.568 L6.257,14.172 L6.653,13.71 C6.91700132,13.6219996 7.05999989,13.4350014 7.082,13.149 L7.643,13.017 L8.27,12.324 L8.27,11.994 L8.831,11.697 L9.128,11.004 L9.557,10.971 L9.953,10.377 L10.316,10.278 L10.349,10.014 L10.844,9.684 C10.6019988,9.17799747 10.3270015,8.78200143 10.019,8.496 L9.722,8.166 C9.61199945,8.05599945 9.45800099,7.85800143 9.26,7.572 L9.095,7.275 L8.6,6.879 L7.346,5.559 L7.082,5.163 L6.719,4.8 L5.993,4.47 C4.84899428,3.74399637 4.277,3.01800363 4.277,2.292 C4.277,2.18199945 4.29899978,2.06100066 4.343,1.929 L4.607,1.83 L4.706,1.401 L5.498,1.071 L6.587,1.203 L7.049,1.665 L7.775,1.698 L8.006,2.127 L8.369,2.292 L8.567,2.787 L8.996,2.952 L9.326,3.447 L10.019,3.777 L10.019,4.47 L11.075,5.46 L11.207,5.79 L11.339,5.79 L11.966,6.648 L12.296,7.473 L12.56,7.671 C12.8240013,7.40699868 13.0879987,7.20900066 13.352,7.077 L13.517,6.78 L13.517,6.582 L14.507,5.724 L15.035,5.064 L15.2,4.767 L15.629,4.206 L16.322,3.513 L16.454,3.15 C16.4980002,3.10599978 16.618999,2.9740011 16.817,2.754 C16.8390001,2.64399945 16.8719998,2.46800121 16.916,2.226 L17.609,1.302 L18.104,0.84 L18.896,0.675 C19.7320042,0.8950011 20.15,1.41199593 20.15,2.226 C20.15,2.35800066 19.9960015,2.70999714 19.688,3.282 C19.5339992,3.43600077 19.3470011,3.67799835 19.127,4.008 L19.127,4.206 L19.028,4.404 L18.863,4.404 L18.632,4.833 L18.434,4.965 L17.939,5.46 L17.675,5.79 L17.543,6.219 L17.246,6.351 L17.114,6.714 L16.751,6.945 C16.6189993,7.03300044 16.4870007,7.19799879 16.355,7.44 C16.2229993,7.68200121 16.1020006,7.85799945 15.992,7.968 L15.794,8.034 L15.365,8.661 L14.837,9.123 L14.474,9.651 L14.21,9.816 L14.54,10.278 L14.804,10.905 C15.1560018,11.301002 15.3979993,11.5759992 15.53,11.73 L16.355,12.753 L16.454,13.149 L17.279,13.743 L17.939,14.403 L18.566,14.667 L19.193,15.228 C19.4790014,15.3160004 19.8639976,15.4479991 20.348,15.624 L20.744,15.624 L20.909,15.426 L21.239,14.799 C21.7010023,14.8870004 22.2179971,15.128998 22.79,15.525 C23.186002,15.8770018 23.384,16.2069985 23.384,16.515 Z"></path>
</svg>
