<?xml version="1.0" encoding="UTF-8"?>
<svg width="127px" height="55px" viewBox="0 0 127 55" version="1.1" xmlns="http://www.w3.org/2000/svg" xmlns:xlink="http://www.w3.org/1999/xlink">
    <!-- Generator: Sketch 52.4 (67378) - http://www.bohemiancoding.com/sketch -->
    <title>Logo</title>
    <desc>Created with Sketch.</desc>
    <g id="Page-1" stroke="none" stroke-width="1" fill="none" fill-rule="evenodd">
        <g id="Styleguide" transform="translate(-178.000000, -21.000000)">
            <g id="Logo" transform="translate(172.000000, 15.000000)">
                <path d="M29.164584,61.0055866 C22.546665,61.0055866 17.0047486,58.3052579 12.5386683,52.9045195 C8.31619242,47.7923701 6.20498615,41.8145433 6.20498615,34.9708595 C6.20498615,28.0859487 8.31619242,22.0875086 12.5386683,16.9753593 C17.0047486,11.5746208 22.546665,8.87429214 29.164584,8.87429214 C32.169038,8.87429214 34.9704463,9.49268803 37.568893,10.7294984 C38.0967025,9.61636906 38.8579547,8.65785544 39.8526726,7.85392873 C40.8473905,7.05000202 41.8928436,6.64804469 42.9890633,6.64804469 C43.3950706,6.64804469 43.5980712,6.85417665 43.5980712,7.26644676 C43.5980712,7.39012779 43.5574711,7.49319378 43.4762696,7.5756478 C42.217647,9.34840926 41.5883451,11.3272761 41.5883451,13.5123077 C41.5883451,14.3368479 41.7101455,15.5530265 41.9537499,17.1608799 C42.1973542,18.7687333 42.3191546,19.9849119 42.3191546,20.8094521 C42.3191546,23.3655267 41.8319532,25.5092992 40.8575357,27.2408336 C38.9493014,30.6214485 36.4320939,32.3117306 33.3058377,32.3117306 C32.2908195,32.3117306 31.3976168,32.0849854 30.6262029,31.6314883 C29.7329869,31.0955372 29.2863856,30.3328489 29.2863856,29.3434006 C29.2863856,28.5188604 29.6822367,27.7767854 30.473951,27.1171532 C31.2656652,26.457521 32.0675176,26.1277099 32.8795322,26.1277099 C33.3261402,26.1277099 33.5494409,26.3132286 33.5494409,26.6842717 C33.5494409,26.8079528 33.5088407,26.9728583 33.4276393,27.1789934 C33.3464378,27.3851285 33.3058377,27.550034 33.3058377,27.6737151 C33.3058377,28.5394823 33.6712388,28.9723594 34.4020519,28.9723594 C35.3358687,28.9723594 36.0666709,28.2302843 36.5944804,26.7461119 C36.9598869,25.6329827 37.1425875,24.4992569 37.1425875,23.3449006 C37.1425875,20.5826908 36.2493848,18.0266545 34.4629527,15.6767149 C32.5547184,13.0794132 30.2608116,11.7807819 27.5811634,11.7807819 C23.6428927,11.7807819 20.5369834,14.0894598 18.2633426,18.706885 C16.4363097,22.376089 15.522807,26.4368887 15.522807,30.8894058 C15.522807,33.0744374 15.7258076,35.2800494 16.1318149,37.506308 C17.3092361,43.7728136 19.6640431,48.864273 23.1963066,52.7808391 C26.2007606,56.0789999 29.38787,57.7280556 32.7577306,57.7280556 C34.7065656,57.7280556 36.7365716,57.2127257 38.8478096,56.1820505 C40.7966446,55.1926022 42.4612496,53.914584 43.8416744,52.3479576 C43.9634766,52.2242766 44.5115782,51.5028147 45.4859957,50.1835504 C45.8108015,49.7712803 46.1356025,49.5651483 46.4604083,49.5651483 C47.0288185,49.5651483 47.3130194,49.8949594 47.3130194,50.5545916 C47.3130194,50.7607267 47.2318191,50.9874718 47.0694162,51.2348339 C45.0393797,54.2031787 42.420672,56.5736962 39.2132143,58.3464577 C36.0057567,60.1192192 32.6562467,61.0055866 29.164584,61.0055866 Z" id="C" fill="#DBDFAC" fill-rule="evenodd"></path>
                <path d="M63.9595643,35.0769624 C63.9595643,35.2086377 63.8938171,35.2744744 63.7623205,35.2744744 L56.3410216,35.2744744 C56.193088,35.2744744 56.1191223,35.2086377 56.1191223,35.0769624 C56.1191223,34.9452871 56.193088,34.8794505 56.3410216,34.8794505 C57.0642526,34.8465317 57.4258626,34.5091188 57.4258626,33.8672018 C57.4258626,33.554473 57.3272417,33.2582081 57.1299969,32.9783981 C56.9327521,32.6985881 56.5547052,32.3447161 55.9958449,31.9167714 C55.058932,31.2090168 53.9247914,30.8551448 52.5933889,30.8551448 C50.5880666,30.8551448 49.133408,31.5546592 48.2293693,32.9537091 C48.3115546,33.5297885 48.5704345,33.9947598 49.0060168,34.3486372 C49.4415991,34.7025145 49.9634682,34.8794505 50.5716397,34.8794505 L51.1140602,34.8794505 C51.2455568,34.8794505 51.311304,34.9452871 51.311304,35.0769624 C51.311304,35.2086377 51.2455568,35.2744744 51.1140602,35.2744744 L44.4324256,35.2744744 C44.284492,35.2744744 44.2105263,35.2086377 44.2105263,35.0769624 C44.2105263,34.9452871 44.284492,34.8794505 44.4324256,34.8794505 C44.9255376,34.8794505 45.4268607,34.6572518 45.9364098,34.2128477 C46.3966477,33.8178219 46.7418209,33.3569653 46.9719399,32.8302641 L52.494767,20.2635672 C53.4316798,18.1073844 54.656223,16.7083555 56.1684332,16.0664385 C56.3163668,16.0006009 56.398551,16.0335192 56.414988,16.1651945 C56.4807363,16.2804103 56.4478626,16.3709357 56.3163661,16.4367734 C55.7575058,16.6836645 55.4780798,17.2515057 55.4780798,18.1403138 C55.4780798,18.8645279 55.6260112,19.5722719 55.9218785,20.2635672 L61.2474617,32.8302641 C61.4611436,33.3405059 61.7570064,33.7931329 62.135059,34.1881587 C62.5952969,34.6490222 63.0637463,34.8794505 63.5404212,34.8794505 L63.7623205,34.8794505 C63.8938171,34.8794505 63.9595643,34.9452871 63.9595643,35.0769624 Z M57.1299969,31.4229916 L52.9385656,21.4239498 L48.8211007,30.7810778 C49.9388213,30.0733232 51.2044566,29.7194511 52.6180444,29.7194511 C54.228877,29.7194511 55.60957,30.1720781 56.7601647,31.0773457 C56.9245354,31.1925616 57.0478116,31.3077757 57.1299969,31.4229916 Z M80.2568354,37.0520818 C80.1910872,37.1508383 80.1006846,37.175527 79.9856252,37.1261488 C79.2459571,36.8627982 78.6131395,36.4677783 78.0871534,35.9410772 C77.7091008,35.5625107 77.273525,34.9699808 76.780413,34.1634697 L69.0139374,21.5967727 L69.0139374,32.7068192 C69.0139374,33.2335203 69.1906332,33.7231804 69.5440302,34.1758142 C69.8974271,34.628448 70.3288937,34.8547615 70.8384428,34.8547615 L71.2329304,34.8547615 C71.380864,34.8547615 71.4548297,34.9205982 71.4548297,35.0522734 C71.4548297,35.1839487 71.380864,35.2497854 71.2329304,35.2497854 L65.6607923,35.2497854 C65.5292958,35.2497854 65.4635485,35.1839487 65.4635485,35.0522734 C65.4635485,34.9205982 65.5292958,34.8547615 65.6607923,34.8547615 L66.0799355,34.8547615 C66.5894846,34.8547615 67.0209511,34.628448 67.3743481,34.1758142 C67.727745,33.7231804 67.9044409,33.2335203 67.9044409,32.7068192 L67.9044409,19.7944763 C67.46064,19.0702623 67.0415011,18.5682578 66.6470115,18.2884478 C66.1703365,17.9428002 65.5375189,17.769979 64.7485396,17.769979 C64.600606,17.769979 64.5266403,17.6959127 64.5266403,17.547778 C64.5266403,17.4161027 64.600606,17.3502661 64.7485396,17.3502661 L69.9261901,17.3502661 L77.1502452,29.3738053 L77.1502452,18.9797396 C77.1502452,18.6176325 77.0187506,18.3254824 76.7557575,18.1032804 C76.4927644,17.8810783 76.1804648,17.769979 75.8188494,17.769979 L75.4490172,17.769979 C75.3010836,17.769979 75.2271179,17.6959127 75.2271179,17.547778 C75.2271179,17.4161027 75.3010836,17.3502661 75.4490172,17.3502661 L79.9609697,17.3502661 C80.1089033,17.3502661 80.182869,17.4161027 80.182869,17.547778 C80.182869,17.6959127 80.1089033,17.769979 79.9609697,17.769979 L79.5911375,17.769979 C79.229522,17.769979 78.9172224,17.8810783 78.6542294,18.1032804 C78.3912363,18.3254824 78.2597417,18.6176325 78.2597417,18.9797396 L78.2597417,31.5958145 C78.2597417,32.4517039 78.4158915,33.3816466 78.7281958,34.3856707 C79.1062483,35.52137 79.5746977,36.3114098 80.133558,36.7558139 C80.2650546,36.8545704 80.3061466,36.9533253 80.2568354,37.0520818 Z" id="an" fill="#DBDFAC" fill-rule="evenodd"></path>
                <path d="M127.569663,36.6622548 C127.503289,36.7597768 127.412026,36.784157 127.295871,36.7353959 C126.549163,36.4753371 125.910323,36.0852548 125.37933,35.5651372 C124.997679,35.1913027 124.557958,34.6061792 124.060152,33.8097492 L116.219757,21.4001309 L116.219757,32.3713062 C116.219757,32.8914238 116.398135,33.3749633 116.754895,33.8219394 C117.111656,34.2689154 117.547229,34.4924001 118.061628,34.4924001 L118.45987,34.4924001 C118.609212,34.4924001 118.683881,34.5574138 118.683881,34.6874432 C118.683881,34.8174726 118.609212,34.8824863 118.45987,34.8824863 L112.834697,34.8824863 C112.701949,34.8824863 112.635576,34.8174726 112.635576,34.6874432 C112.635576,34.5574138 112.701949,34.4924001 112.834697,34.4924001 L113.25783,34.4924001 C113.772229,34.4924001 114.207802,34.2689154 114.564562,33.8219394 C114.921323,33.3749633 115.0997,32.8914238 115.0997,32.3713062 L115.0997,19.6203625 C114.651676,18.9052008 114.228547,18.4094712 113.830303,18.1331587 C113.349091,17.7918316 112.710251,17.6211705 111.913762,17.6211705 C111.76442,17.6211705 111.689751,17.5480301 111.689751,17.401747 C111.689751,17.2717176 111.76442,17.2067039 111.913762,17.2067039 L117.140692,17.2067039 L124.433505,29.0799536 L124.433505,18.8158096 C124.433505,18.4582288 124.300759,18.1697304 124.035262,17.9503058 C123.769766,17.7308812 123.454494,17.6211705 123.089437,17.6211705 L122.716085,17.6211705 C122.566743,17.6211705 122.492073,17.5480301 122.492073,17.401747 C122.492073,17.2717176 122.566743,17.2067039 122.716085,17.2067039 L127.270981,17.2067039 C127.420323,17.2067039 127.494992,17.2717176 127.494992,17.401747 C127.494992,17.5480301 127.420323,17.6211705 127.270981,17.6211705 L126.897629,17.6211705 C126.532572,17.6211705 126.2173,17.7308812 125.951803,17.9503058 C125.686307,18.1697304 125.553561,18.4582288 125.553561,18.8158096 L125.553561,31.2741887 C125.553561,32.1193797 125.711197,33.0376986 126.026474,34.0291727 C126.408125,35.1506762 126.881033,35.9308409 127.445212,36.3696901 C127.57796,36.4672121 127.619443,36.5647327 127.569663,36.6622548 Z" id="n" fill="#DBDFAC" fill-rule="evenodd"></path>
                <path d="M76.6509042,56.7039106 C74.8959499,56.7039106 73.4335099,56.0057743 72.2635403,54.6094806 C71.1423195,53.286037 70.5817175,51.7319248 70.5817175,49.9470972 C70.5817175,48.1744113 71.1423195,46.6263698 72.2635403,45.3029263 C73.4335099,43.8944909 74.8959499,43.1902838 76.6509042,43.1902838 C77.4430711,43.1902838 78.1803846,43.3541941 78.8628669,43.6820196 C79.1919208,42.9778019 79.6733073,42.6256983 80.3070409,42.6256983 C80.4045383,42.6256983 80.4532863,42.6742643 80.4532863,42.7713978 C80.4532863,42.8078229 80.4471928,42.8381766 80.4350056,42.86246 C80.1059517,43.323844 79.9414272,43.8398578 79.9414272,44.410517 C79.9414272,44.6169256 79.9718947,44.9295693 80.0328306,45.3484574 C80.0937665,45.7673455 80.124234,46.0799891 80.124234,46.2863978 C80.124234,46.9541904 79.9962705,47.5126995 79.7403397,47.9619418 C79.2406652,48.836143 78.5764737,49.2732371 77.7477452,49.2732371 C77.46744,49.2732371 77.2297935,49.2125296 77.0347986,49.0911128 C76.8032421,48.9575542 76.6874656,48.7632902 76.6874656,48.5083148 C76.6874656,48.2897645 76.7880084,48.0955005 76.9890969,47.9255169 C77.1901854,47.7555333 77.4065047,47.6705428 77.6380611,47.6705428 C77.7477458,47.6705428 77.8025873,47.7191088 77.8025873,47.8162423 C77.8025873,47.8405257 77.7904003,47.8799856 77.7660259,47.9346231 C77.7416515,47.9892607 77.7294645,48.0347914 77.7294645,48.0712164 C77.7294645,48.3019084 77.833054,48.4172527 78.0402362,48.4172527 C78.2717926,48.4172527 78.4606911,48.2229886 78.6069373,47.8344547 C78.7044348,47.5430543 78.7531828,47.2516583 78.7531828,46.9602579 C78.7531828,46.2438985 78.5216298,45.5761159 78.0585168,44.95689 C77.5466552,44.2890974 76.9373051,43.9552061 76.2304485,43.9552061 C75.1823508,43.9552061 74.3597283,44.5501397 73.7625563,45.7400247 C73.2872562,46.6992178 73.0496097,47.7555284 73.0496097,48.9089884 C73.0496097,49.4796476 73.1044512,50.0502982 73.2141358,50.6209573 C73.5188154,52.247943 74.1403524,53.5652959 75.0787655,54.5730557 C75.8709324,55.4351153 76.7118354,55.8661386 77.6014998,55.8661386 C78.1133614,55.8661386 78.6374025,55.7325821 79.1736385,55.465465 C79.7098746,55.198348 80.1607936,54.8644567 80.5264091,54.4637811 C80.5507834,54.4394977 80.6970274,54.2513045 80.9651455,53.8991956 C81.0382686,53.7899205 81.1174841,53.7352837 81.2027943,53.7352837 C81.3612277,53.7352837 81.4404432,53.8202742 81.4404432,53.9902578 C81.4404432,54.0509662 81.4221627,54.1116737 81.3856012,54.1723821 C80.8493651,54.9494499 80.1577529,55.5656311 79.3107436,56.0209443 C78.4637344,56.4762575 77.5771301,56.7039106 76.6509042,56.7039106 Z M96.1716814,54.9289726 C96.2193144,55.5511189 95.9632907,56.014672 95.4036025,56.3196457 C94.9510886,56.5758236 94.3556846,56.7039106 93.6173725,56.7039106 C93.0695926,56.7039106 92.5873153,56.6368174 92.1705263,56.502629 C90.9320673,56.0878648 89.9198805,55.374237 89.1339354,54.3617244 C88.7647793,53.8737665 88.3539505,53.2455301 87.9014367,52.4769964 L86.7582495,50.5373734 C86.6272587,50.3177923 86.531994,50.1775066 86.4724527,50.1165118 C86.3652784,49.9701244 86.2521516,49.8603356 86.133069,49.7871419 C86.1092525,49.7749429 86.0199419,49.7688435 85.8651345,49.7688435 L85.8651345,54.398321 C85.8651345,54.7886874 85.9901694,55.1424515 86.2402428,55.4596242 C86.5022245,55.8133937 86.8177887,55.9902757 87.1869447,55.9902757 L87.4906038,55.9902757 C87.5977781,55.9902757 87.6513645,56.0329714 87.6513645,56.1183641 C87.6513645,56.2281546 87.5977781,56.283049 87.4906038,56.283049 L81.9711532,56.283049 C81.8758872,56.283049 81.8282548,56.234254 81.8282548,56.1366624 C81.8282548,56.0390708 81.8758872,55.9902757 81.9711532,55.9902757 L82.2748123,55.9902757 C82.6439684,55.9902757 82.9595325,55.8133937 83.2215142,55.4596242 C83.4715877,55.1424515 83.5966225,54.7886874 83.5966225,54.398321 L83.5966225,44.2244496 C83.5966225,43.6145022 83.1857937,43.3095331 82.3641238,43.3095331 C82.2569495,43.3095331 82.2033631,43.260738 82.2033631,43.1631464 C82.2033631,43.0655548 82.2569495,43.0167598 82.3641238,43.0167598 L87.4370169,43.0167598 C88.7826502,43.0167598 89.9675042,43.2424369 90.9916145,43.693798 C92.3610643,44.3037454 93.0457789,45.206454 93.0457789,46.4019508 C93.0457789,47.3534687 92.4206047,48.1463884 91.1702375,48.7807337 C90.2652098,49.2442937 89.2411149,49.5431635 88.097922,49.6773519 C88.7290597,50.0067235 89.2708774,50.4885747 89.7233912,51.12292 C90.0449142,51.574281 90.3902486,52.2208156 90.7594046,53.0625429 C91.2119185,54.0872545 91.6108392,54.8008823 91.9561787,55.2034476 C92.5158669,55.8499918 93.2363057,56.1854578 94.1175169,56.2098557 C94.5581225,56.2220547 94.9451351,56.0878682 95.2785664,55.8072924 C95.4095572,55.685303 95.4750517,55.5206196 95.4750517,55.3132375 C95.4750517,55.1302533 95.3857411,55.0753589 95.2071172,55.1485526 C95.1237594,55.1851494 95.0106326,55.2400438 94.8677335,55.3132375 C94.8677335,54.6788923 95.1178032,54.355625 95.6179501,54.343426 C95.9513813,54.3312271 96.1359566,54.5264073 96.1716814,54.9289726 Z M90.3601108,46.5178167 C90.3601108,45.6423279 89.9793344,44.9518119 89.2177703,44.4462479 C88.563301,44.0146689 87.7838994,43.7988827 86.879542,43.7988827 C86.3559666,43.7988827 86.0941828,44.0763222 86.0941828,44.6312094 L86.0941828,49.2367507 C86.3202722,49.2614124 86.5463582,49.273743 86.7724475,49.273743 C87.7125033,49.273743 88.5216531,49.0517914 89.1999212,48.6078816 C89.9733848,48.1023177 90.3601108,47.4056363 90.3601108,46.5178167 Z M110.526316,56.1683337 C110.526316,56.2646778 110.478546,56.3128492 110.383005,56.3128492 L104.990922,56.3128492 C104.883438,56.3128492 104.829697,56.2646778 104.829697,56.1683337 C104.829697,56.0719896 104.883438,56.0238183 104.990922,56.0238183 C105.516399,55.9997323 105.779133,55.7528542 105.779133,55.2831767 C105.779133,55.0543594 105.707479,54.8375884 105.564167,54.6328572 C105.420855,54.428126 105.146178,54.1692051 104.740127,53.8560867 C104.059396,53.3382372 103.235365,53.0793163 102.26801,53.0793163 C100.811006,53.0793163 99.7540964,53.5911367 99.0972503,54.6147928 C99.1569636,55.0362982 99.3450576,55.3765083 99.661538,55.6354331 C99.9780184,55.8943578 100.357192,56.0238183 100.79907,56.0238183 L101.193176,56.0238183 C101.288717,56.0238183 101.336487,56.0719896 101.336487,56.1683337 C101.336487,56.2646778 101.288717,56.3128492 101.193176,56.3128492 L96.3385104,56.3128492 C96.2310265,56.3128492 96.1772853,56.2646778 96.1772853,56.1683337 C96.1772853,56.0719896 96.2310265,56.0238183 96.3385104,56.0238183 C96.6967901,56.0238183 97.0610357,55.86124 97.431258,55.5360787 C97.7656524,55.2470464 98.0164444,54.9098471 98.1836416,54.5244706 L102.196354,45.329676 C102.877086,43.7520413 103.7668,42.7284005 104.865525,42.258723 C104.973009,42.2105509 105.032721,42.2346366 105.044664,42.3309807 C105.092434,42.4152818 105.068549,42.4815174 104.973008,42.5296894 C104.566958,42.7103346 104.363936,43.1258124 104.363936,43.7761351 C104.363936,44.3060277 104.471418,44.8238695 104.686386,45.329676 L108.555787,54.5244706 C108.711042,54.897804 108.926006,55.2289819 109.200688,55.5180143 C109.535082,55.8552186 109.875443,56.0238183 110.22178,56.0238183 L110.383005,56.0238183 C110.478546,56.0238183 110.526316,56.0719896 110.526316,56.1683337 Z M105.872576,53.575419 L102.742464,46.1452514 L99.66759,53.0984206 C100.502291,52.5724966 101.447452,52.3095386 102.503103,52.3095386 C103.706054,52.3095386 104.737139,52.6458803 105.59639,53.3185737 C105.71914,53.4041892 105.811201,53.4898035 105.872576,53.575419 Z M121.383222,43.5680216 C121.225511,44.6716295 120.667468,45.5497559 119.709074,46.2024273 C119.684811,46.2261608 119.660548,46.2380274 119.636285,46.2380274 C119.527101,46.2380274 119.472509,46.1846278 119.472509,46.077827 C119.472509,46.0659603 119.511936,45.9828942 119.590792,45.8286265 C119.669647,45.6743587 119.709074,45.5200932 119.709074,45.3658255 C119.709074,44.8555551 119.357264,44.4698915 118.653633,44.208823 C118.144107,44.0189549 117.573932,43.9240223 116.94309,43.9240223 L116.415369,43.9240223 C116.148475,43.9240223 115.917979,44.0041217 115.723874,44.1643229 C115.529768,44.324524 115.432717,44.541089 115.432717,44.8140243 L115.432717,51.631439 L116.779315,51.631439 C117.264577,51.631439 117.622453,51.5424397 117.852953,51.3644385 C118.022795,51.2457709 118.204766,51.020306 118.398871,50.688037 C118.435266,50.6287032 118.489857,50.6049701 118.562646,50.6168368 C118.635436,50.6405703 118.67183,50.6821033 118.67183,50.7414371 L118.67183,53.2512425 C118.67183,53.322443 118.635436,53.3639761 118.562646,53.3758428 C118.489857,53.4114431 118.435266,53.3936432 118.398871,53.3224427 C118.180503,52.9545734 117.962138,52.7024087 117.74377,52.5659411 C117.525401,52.4294734 117.20392,52.3612406 116.779315,52.3612406 L115.432717,52.3612406 L115.432717,54.4972452 C115.432717,54.8651145 115.56313,55.2122118 115.823958,55.5385475 C116.084787,55.8648832 116.403236,56.0280485 116.779315,56.0280485 L117.070471,56.0280485 C117.179655,56.0280485 117.234246,56.0755148 117.234246,56.1704489 C117.234246,56.2653829 117.179655,56.3128492 117.070471,56.3128492 L111.447517,56.3128492 C111.350465,56.3128492 111.301939,56.2653829 111.301939,56.1704489 C111.301939,56.0755148 111.350465,56.0280485 111.447517,56.0280485 L111.756871,56.0280485 C112.132949,56.0280485 112.451398,55.8648832 112.712227,55.5385475 C112.973056,55.2122118 113.103468,54.8651145 113.103468,54.4972452 L113.103468,44.5826238 C113.103468,44.3215552 113.00945,44.1079569 112.82141,43.9418224 C112.633371,43.7756879 112.399842,43.6926218 112.120816,43.6926218 L111.847857,43.6926218 C111.750804,43.6926218 111.702279,43.6451556 111.702279,43.5502215 C111.702279,43.4552875 111.750804,43.4078212 111.847857,43.4078212 L121.237644,43.4078212 C121.346828,43.4078212 121.395353,43.4612208 121.383222,43.5680216 Z M132.802938,43.3289907 L131.594408,45.9618286 C131.558333,46.0459837 131.516245,46.0880606 131.468144,46.0880606 C131.359917,46.0880606 131.305804,46.0399727 131.305804,45.9437955 C131.305804,45.9197512 131.323842,45.8235754 131.359918,45.6552653 C131.395993,45.4869552 131.414031,45.3487025 131.414031,45.2405032 C131.414031,44.7956836 131.287768,44.4350244 131.035238,44.158515 C130.782708,43.8820055 130.433982,43.7437528 129.989049,43.7437528 L128.311538,43.7437528 L128.311538,54.4734692 C128.311538,54.858178 128.437801,55.2098207 128.69033,55.5284077 C128.94286,55.8469947 129.255511,56.0062858 129.628293,56.0062858 C129.928924,56.0062858 130.079237,56.0603847 130.079237,56.1685841 C130.079237,56.2647613 130.031137,56.3128492 129.934935,56.3128492 L124.397346,56.3128492 C124.301144,56.3128492 124.253044,56.2647613 124.253044,56.1685841 C124.253044,56.0603847 124.397344,56.0062858 124.68595,56.0062858 C125.070757,56.0062858 125.389421,55.8469947 125.641951,55.5284077 C125.89448,55.2098207 126.020743,54.858178 126.020743,54.4734692 L126.020743,43.7437528 L124.956516,43.7437528 C124.198927,43.7437528 123.579637,43.8940274 123.098628,44.1945812 C122.617619,44.495135 122.136617,45.0902226 121.655608,45.9798618 C121.619532,46.0519947 121.577444,46.0880606 121.529344,46.0880606 C121.433142,46.0880606 121.385042,46.0399727 121.385042,45.9437955 C121.385042,45.8115518 121.872056,44.7355854 122.846099,42.715864 C122.882175,42.6557533 122.924263,42.6256983 122.972364,42.6256983 C123.068565,42.6256983 123.116666,42.6737862 123.116666,42.7699634 C123.116666,42.7940077 123.062553,42.9202384 122.954326,43.1486593 L132.568447,43.1486593 C132.71275,42.8481055 132.814962,42.6978309 132.875089,42.6978309 C132.97129,42.6978309 133.019391,42.7459188 133.019391,42.842096 C133.019391,42.8541181 132.94724,43.0164147 132.802938,43.3289907 Z" id="craft" fill="#DBDFAC" fill-rule="evenodd"></path>
                <path d="M99.4670034,16.897122 L99.1023496,18.2823672 C99.7843156,18.4730072 100.432816,18.7448107 101.03698,19.0868154 L101.720392,17.8819422 L101.901835,17.9885722 L101.218854,19.1926875 C101.678744,19.467876 102.111499,19.7843293 102.5121,20.1369877 L102.341073,20.2688689 C101.072545,19.1633664 99.4779535,18.4280186 97.7223867,18.2292953 L98.4314829,23.2995672 L106.312824,17.2520674 L105.077497,18.8619941 C106.865284,20.7692864 108.014988,23.2911553 108.182241,26.080345 L111.689751,26.5921788 L108.199238,27.1015322 C108.121378,30.0423353 106.952501,32.7088375 105.085886,34.7044653 L104.30193,33.6707005 C104.700973,33.2263112 105.061933,32.7464993 105.379619,32.2365008 L104.151065,31.5145099 C103.929257,31.8664897 103.683405,32.2015514 103.415841,32.5173446 L103.284756,32.3444897 C104.393762,31.021522 105.11428,29.3567495 105.268816,27.5291544 L98.6253463,28.4986034 L98.6247789,28.5026601 L99.5778756,28.3647707 L98.9475757,28.9950705 L98.6039683,28.651463 L98.4098044,30.0397992 L105.174865,35.2307563 L105.147176,35.1946704 L98.9900988,29.0375936 L99.677307,28.3503854 L100.111958,28.2875022 L106.312824,36.3687151 L104.680798,35.116431 C102.735133,36.9986683 100.131274,38.1943936 97.2521407,38.3174763 L96.7590028,41.8435754 L96.2658648,38.3174763 C93.3867316,38.1943936 90.7828721,36.9986683 88.8372079,35.116431 L87.2051818,36.3687151 L93.4051393,28.2886852 L93.6434642,28.3231649 L88.3431405,35.2307563 L88.3792264,35.2030669 L94.5363032,29.0459901 L95.0396014,29.5492884 L95.0257735,29.4504143 L94.5788263,29.003467 L94.9160977,28.6661957 L94.8926593,28.4986034 L88.2491894,27.5291543 C88.403948,29.3593803 89.1263193,31.0263145 90.2380411,32.3502008 L90.1069806,32.5230238 C89.8230656,32.1885031 89.5635344,31.8323134 89.3311637,31.4572544 L88.1181099,32.1663456 L88.0133534,31.9826393 L89.2219406,31.276159 C88.9068071,30.7392355 88.6464904,30.1657287 88.4487607,29.5634737 L87.133545,29.9202796 L87.0793191,29.7153818 L88.3850248,29.3611558 C88.2049021,28.7644116 88.0857913,28.1408643 88.0350187,27.4979014 L86.5981132,27.2882208 C86.7150503,29.7425887 87.6873897,31.9707756 89.2210477,33.6762334 L88.4371836,34.7098763 C86.5676187,32.7136587 85.3966981,30.044994 85.3187675,27.1015322 L81.8282548,26.5921788 L85.3357648,26.080345 C85.5036139,23.2812035 86.6609386,20.7512936 88.4596694,18.8416018 L87.2051818,17.2067039 L95.0922521,23.2586 L95.7956188,18.2292953 C94.0547726,18.4263523 92.4722139,19.1510723 91.2089111,20.2411379 L91.0377112,20.1091233 C91.43095,19.7662772 91.8547842,19.458152 92.3045276,19.1894735 L91.6161702,17.9823345 L91.7976138,17.8762716 L92.4862331,19.0838698 C93.0894832,18.7429289 93.7368676,18.4719494 94.4175781,18.2818302 L94.051109,16.8970923 C92.4809557,17.3332359 91.062894,18.1393829 89.8949384,19.2166973 L88.8705991,18.4268148 C90.8001615,16.5750826 93.3699721,15.3955206 96.2108259,15.2604277 L96.7590028,11.3407821 L97.3071796,15.2604277 C100.162958,15.3962303 102.744838,16.5875052 104.677765,18.4560549 L103.654086,19.2454276 C102.480282,18.1537371 101.051041,17.3371411 99.4670034,16.897122 Z M99.2643212,16.8430969 C98.6902143,16.696481 98.0966551,16.5990882 97.4883189,16.5556331 L97.6919994,18.0120157 C98.1037483,18.0560152 98.5069756,18.1288064 98.899664,18.2283551 L99.2643212,16.8430969 Z M105.490015,32.0551266 C106.325721,30.6496138 106.837117,29.025584 106.919892,27.2882209 L105.482987,27.4979014 C105.430456,28.1631338 105.304771,28.8075824 105.114045,29.4230651 L106.438686,29.7843494 L106.384461,29.9903427 L105.04847,29.6259628 C104.8462,30.2268479 104.581482,30.7986524 104.262109,31.3335162 L105.490015,32.0551266 Z M106.625307,24.2787175 L105.253139,24.6529645 C105.335758,24.9883357 105.399356,25.3312844 105.44271,25.6805787 L106.89357,25.8922956 C106.846277,25.3407968 106.755709,24.8017807 106.625307,24.2787175 Z M106.571634,24.0725735 C106.143006,22.4938052 105.349694,21.0670133 104.288688,19.8900008 L103.403529,21.0435751 C103.709277,21.4028674 103.986861,21.7872424 104.232827,22.1932192 L105.399896,21.5073613 L105.504652,21.6920498 L104.34065,22.3761058 C104.709576,23.0194122 105.000292,23.7140364 105.19969,24.4467592 L106.571634,24.0725735 Z M99.4601155,36.6802077 L99.1014797,35.3178235 L99.3038537,35.2626278 L99.6617185,36.622083 C100.450991,36.3855553 101.200154,36.0550462 101.896447,35.6434216 L101.196609,34.409588 L101.378053,34.302958 L102.076545,35.5344182 C102.641532,35.1844094 103.170014,34.7802974 103.654896,34.3292379 L102.503647,33.4458631 C101.173536,34.6137826 99.4901397,35.3830727 97.6365037,35.5691538 L97.4330969,37.0235796 C98.1302716,36.9775888 98.80828,36.8607764 99.4601155,36.6802077 Z M86.6244355,25.8922956 L88.0752955,25.6805787 C88.1203333,25.3177176 88.187218,24.9617046 88.2745798,24.6139207 L86.902035,24.2415619 C86.7666131,24.7762433 86.6728492,25.3277288 86.6244355,25.8922956 Z M88.2919776,25.6489594 L93.140219,24.9414792 L90.2645535,21.1937981 C89.2192414,22.426643 88.5131329,23.9606871 88.2919776,25.6489594 Z M93.4393876,25.3313676 L84.7992622,26.5921788 L84.9238729,26.6103626 L95.0408402,26.6103626 L95.0424914,26.4549389 L95.0441426,26.6103626 L96.7410018,26.6103626 L96.7590028,26.6283635 L95.2645357,28.1228306 L95.289861,28.3039147 L95.5506213,28.0431543 L95.5501222,28.1220959 L95.2994854,28.3727327 L96.7590028,38.8087636 L96.7590028,26.7474196 L96.7770037,26.7294187 L98.2432796,28.1956945 L98.2539703,28.1192519 L108.718743,26.5921788 L108.594133,26.5739949 L98.4771653,26.5739949 L98.4755142,26.7294187 L98.473863,26.5739949 L96.7770037,26.5739949 L96.7590028,26.555994 L98.2534698,25.0615269 L96.7590028,14.375594 L96.7590028,26.4369379 L96.7410018,26.4549389 L95.274726,24.988663 L95.2640352,25.0651057 L95.0817823,25.0917009 L95.1068093,25.116728 L95.0529139,25.1163872 L95.0649561,25.1284294 L93.8459956,25.3047827 L93.8843405,25.2664378 L93.7847635,25.2809685 L93.7465641,25.319168 L93.461655,25.3603873 L93.4393876,25.3313676 Z M94.2923824,24.7733497 L94.3919594,24.7588189 L94.5704298,24.5803485 L94.7034464,24.7133651 L94.8926593,24.6857542 L95.0588101,23.4977211 L88.3431405,18.3446627 L88.3708299,18.3807486 L94.5279067,24.5378254 L94.2923824,24.7733497 Z M96.0849087,37.0235799 L95.8815018,35.569154 C95.4511287,35.5259499 95.0299328,35.4513073 94.6202048,35.347536 L94.2537205,36.7323313 C94.845175,36.8833752 95.4572751,36.9821763 96.0849086,37.0235796 Z M95.8511637,35.3522262 L95.1416432,30.2789203 L91.1858273,33.3142915 C92.4662934,34.4271148 94.0777992,35.1632927 95.8511637,35.3522262 Z M105.226028,25.6489594 C105.006162,23.9705274 104.306979,22.4445309 103.271696,21.215386 L100.40909,24.9460471 L105.226028,25.6489594 Z M100.17097,24.9112996 L105.174865,18.3900262 L105.138779,18.4177156 L98.9817023,24.5747924 L98.5493637,24.1424537 L98.5631916,24.2413278 L98.9391792,24.6173154 L98.8394913,24.7170033 L100.17097,24.9112996 Z M97.6668419,35.3522262 C99.4402063,35.1632927 101.051712,34.4271148 102.332178,33.3142914 L98.3763624,30.2789203 L97.6668419,35.3522262 Z M96.0296866,16.5556331 C95.4213632,16.5990873 94.8278161,16.6964769 94.2537205,16.8430877 L94.6202048,18.2278829 C95.0123054,18.1285762 95.4149084,18.0559456 95.8260061,18.0120158 L96.0296867,16.5556326 Z M89.2481439,19.8691729 C88.1857729,21.0412532 87.3896234,22.4628475 86.9561958,24.0366464 L88.3286838,24.4089898 C88.5300598,23.681766 88.8214898,22.992431 89.1900883,22.353978 L88.0133534,21.6661171 L88.1181099,21.4824107 L89.2980033,22.172118 C89.5457094,21.7658348 89.8251374,21.3813268 90.1328081,21.0221024 L89.2481439,19.8691729 Z M89.8631091,34.3292379 C91.0370927,35.4213307 92.4666644,36.2382134 94.051109,36.6783267 L94.4175781,35.2935888 C93.6614555,35.0824074 92.9464519,34.771457 92.2873805,34.3756751 L91.5881008,35.6019679 L91.4066573,35.495905 L92.1084212,34.2652557 C91.722413,34.0206269 91.3566852,33.7464471 91.0143583,33.4458629 L89.8631091,34.3292379 Z M95.127514,25.1374327 L95.3296046,25.3395233 L95.3331634,25.3395458 L95.5458566,25.552239 L95.4668845,25.5517397 L95.0742959,25.1591511 L95.0742959,25.1377692 L95.127514,25.1374327 Z M98.4982318,10.9286971 C98.4853979,10.9507218 98.4661474,10.9554414 98.4404796,10.9428558 C98.2768476,10.8830742 98.1372812,10.7981228 98.0217763,10.6879989 C97.9383561,10.6030461 97.8404992,10.4740458 97.7282027,10.3009939 L96.0052628,7.56836135 L96.0052628,9.98478254 C96.0052628,10.0980528 96.0437639,10.2018824 96.1207671,10.2962743 C96.2009789,10.4001054 96.2972316,10.4520202 96.409528,10.4520202 L96.500969,10.4520202 C96.5330537,10.4520202 96.5490958,10.4661788 96.5490958,10.4944964 C96.5490958,10.522814 96.5330537,10.5369725 96.500969,10.5369725 L95.2641098,10.5369725 C95.2352336,10.5369725 95.2207957,10.522814 95.2207957,10.4944964 C95.2207957,10.4661788 95.2352336,10.4520202 95.2641098,10.4520202 L95.3555508,10.4520202 C95.4678473,10.4520202 95.5657041,10.4001054 95.6491244,10.2962743 C95.7229192,10.2018824 95.759816,10.0980528 95.759816,9.98478254 L95.759816,7.17663683 C95.6635619,7.01931695 95.5721219,6.91076787 95.4854932,6.85098632 C95.3764052,6.77547278 95.2352346,6.73771657 95.0619772,6.73771657 C95.0298925,6.73771657 95.0138504,6.72198482 95.0138504,6.69052085 C95.0138504,6.66220327 95.0298925,6.64804469 95.0619772,6.64804469 L96.2073954,6.64804469 L97.8100183,9.25796835 L97.8100183,7.00201264 C97.8100183,6.9233527 97.7819446,6.85963911 97.7257964,6.81086995 C97.6696482,6.76210079 97.599865,6.73771657 97.5164448,6.73771657 L97.4346292,6.73771657 C97.4025445,6.73771657 97.3865024,6.72198482 97.3865024,6.69052085 C97.3865024,6.66220327 97.4025445,6.64804469 97.4346292,6.64804469 L98.4356669,6.64804469 C98.4677516,6.64804469 98.4837937,6.66220327 98.4837937,6.69052085 C98.4837937,6.72198482 98.4677516,6.73771657 98.4356669,6.73771657 L98.3538513,6.73771657 C98.2736396,6.73771657 98.2038564,6.76210079 98.1444997,6.81086995 C98.085143,6.85963911 98.0554651,6.9233527 98.0554651,7.00201264 L98.0554651,9.74408434 C98.0554651,9.92972179 98.0923619,10.129515 98.1661567,10.3434701 C98.2463685,10.5951819 98.349038,10.7682311 98.4741684,10.862623 C98.5030446,10.8846478 98.5110656,10.9066723 98.4982318,10.9286971 Z" id="Combined-Shape" fill="#DDE1B1" fill-rule="nonzero"></path>
            </g>
        </g>
    </g>
</svg>